<svg xmlns="http://www.w3.org/2000/svg" version="1.1" xmlns:xlink="http://www.w3.org/1999/xlink" xmlns:svgjs="http://svgjs.dev/svgjs" width="237" height="237"><svg width="237" height="237" viewBox="0 0 237 237" fill="none" xmlns="http://www.w3.org/2000/svg">
<circle cx="118.5" cy="118.5" r="118.5" fill="#FB652B"></circle>
<path d="M122.189 67.875C122.189 65.735 120.457 64 118.32 64C116.184 64 114.451 65.735 114.451 67.875V79.6484C108.85 80.0804 103.524 81.4349 98.6151 83.438L93.7498 76.6388C92.505 74.8993 90.088 74.4998 88.3512 75.7464C86.6144 76.9931 86.2154 79.4139 87.4602 81.1534L91.5732 86.9013C88.4393 88.7197 85.5483 90.7914 82.9503 93.0206C74.1274 100.592 68 110.612 68 119.541C68 128.471 74.1274 138.491 82.9503 146.063C91.9254 153.764 104.398 159.584 118.298 159.584C132.197 159.584 144.669 153.769 153.644 146.069C162.468 138.498 168.595 128.478 168.595 119.541C168.595 110.606 162.468 100.585 153.644 93.0149C151.658 91.3103 149.499 89.6974 147.191 88.2199L151.427 82.3001C152.672 80.5606 152.274 78.1398 150.537 76.8931C148.8 75.6465 146.382 76.0459 145.138 77.7854L140.355 84.4694C134.82 81.9072 128.69 80.1587 122.189 79.6518V67.875ZM118.298 100.167C128.981 100.167 137.643 108.841 137.643 119.541C137.643 130.243 128.981 138.917 118.298 138.917C107.614 138.917 98.9524 130.243 98.9524 119.541C98.9524 108.841 107.614 100.167 118.298 100.167Z" fill="white"></path>
</svg><style>@media (prefers-color-scheme: light) { :root { filter: none; } }
@media (prefers-color-scheme: dark) { :root { filter: none; } }
</style></svg>